<svg xmlns="http://www.w3.org/2000/svg" viewBox="0 0 64 64">
  <defs>
    <linearGradient id="bg" x1="10" y1="8" x2="54" y2="56" gradientUnits="userSpaceOnUse">
      <stop stop-color="#6C63FF"/>
      <stop offset="1" stop-color="#00D4FF"/>
    </linearGradient>
  </defs>
  <rect width="64" height="64" rx="14" fill="url(#bg)"/>
  <path d="M19 24v-5a5 5 0 0 1 5-5h5M45 24v-5a5 5 0 0 0-5-5h-5M19 40v5a5 5 0 0 0 5 5h5M45 40v5a5 5 0 0 1-5 5h-5" fill="none" stroke="#fff" stroke-width="4" stroke-linecap="round"/>
  <path d="M23 34c2.5 5 6 7.5 9 7.5s6.5-2.5 9-7.5" fill="none" stroke="#fff" stroke-width="3.5" stroke-linecap="round"/>
  <circle cx="26" cy="28" r="3" fill="#fff"/>
  <circle cx="38" cy="28" r="3" fill="#fff"/>
</svg>
